<svg xmlns="http://www.w3.org/2000/svg" data-name="Layer 1" viewBox="0 0 100 125" x="0px" y="0px"><title>Artboard 17</title><path d="M7.32,87.69,16,87.3a4.61,4.61,0,0,0,3.88-2.42,3.36,3.36,0,0,0,2.2.83h.15l36.72,2.44q.7,0,1.41,0a23.65,23.65,0,0,0,13.51-4.24l23.34-16.4a4.53,4.53,0,0,0,.68-6.86l-.1-.1A4.61,4.61,0,0,0,92,59.83C84.69,64.3,70.3,72.94,70.3,72.94a12,12,0,0,1-5.95,1.74L48,74.76h0a1.09,1.09,0,0,1-.09-2.17l16.73-.3a3.92,3.92,0,0,0,.12-7.83l-9.9-.73A49.33,49.33,0,0,1,42.7,61.2c-12.58-4.65-20-2.26-24-1a4.67,4.67,0,0,0-4.16-2.15l-8.65.39a5.09,5.09,0,0,0-5,5.26l1,19.2A5.15,5.15,0,0,0,7.32,87.69Zm3.38-10.14a2.84,2.84,0,1,1-3,2.77A2.89,2.89,0,0,1,10.69,77.55Zm60.47-8.3a6.61,6.61,0,0,0-.91-4.31l13.56-7a4.32,4.32,0,0,1,5,.6C82.73,62.18,75.82,66.41,71.17,69.24Zm-6.23-7.49-1.69-.12,12.79-5a4.27,4.27,0,0,1,4.17.37L68.31,62.91A6.6,6.6,0,0,0,64.94,61.76ZM70,49a21.8,21.8,0,1,0-30.83,0A21.83,21.83,0,0,0,70,49ZM47.63,31h4.31V26.69a2.61,2.61,0,0,1,5.22,0V31h4.31a2.61,2.61,0,0,1,0,5.22H57.16v4.31a2.61,2.61,0,0,1-2.61,2.61h0a2.61,2.61,0,0,1-2.61-2.61V36.22H47.63a2.61,2.61,0,0,1,0-5.22Z"/></svg>
